<svg id="Layer_1" data-name="Layer 1" xmlns="http://www.w3.org/2000/svg" xmlns:xlink="http://www.w3.org/1999/xlink" viewBox="0 0 155.21 155.21"><defs><style>.cls-1,.cls-2{fill:#fff;}.cls-1,.cls-7{stroke:#c4c4c4;stroke-miterlimit:10;stroke-width:6px;}.cls-3{clip-path:url(#clip-path);}.cls-4{fill:#1f1f1f;}.cls-5{fill:#c4c4c4;}.cls-6{fill:#fdfdfd;}.cls-7{fill:none;}</style><clipPath id="clip-path" transform="translate(-4.75 -3.14)"><circle class="cls-1" cx="82.35" cy="80.74" r="74.6"/></clipPath></defs><circle class="cls-2" cx="77.6" cy="77.6" r="74.6"/><g class="cls-3"><path class="cls-4" d="M152.74,133.49c0,7.64,0,15.28,0,22.93,0,.65-.11.84-.81.84q-61.33,0-122.66,0c.14-2.27.55-4.51.83-6.77a20.46,20.46,0,0,1,1.27-5.11c1-2.38,2.89-4,4.56-5.72,4-4.2,9.09-6.86,13.75-10.14.87-.61,1.86-1.05,2.76-1.61,1.42-.9,3-1.41,4.42-2.37a16,16,0,0,1,2.36-1.34,17,17,0,0,1,2.84-1.4c.67-.17,1.12-.47.74-1.32a7.39,7.39,0,0,0-1.17-2c-1.19-1.3-2.33-2.65-3.49-4,.45-.84.82.07,1.22.1s0,.35,0,.55.1.66.42.49c.78-.43.9.17,1.19.61s.45,1.12,1.25,1.06c.25,0,.27.24.2.48s-.07.46,0,.51c1,.6,1,2,2.13,2.6a6,6,0,0,1,2.57,1.69c.18.26.33-.11.49-.2s.71-.21.71,0c0,1.21.54,0,.79.21-.15.53-.15,1,.68.8.09,0,.22.15.31.14.66-.08.59.63,1,.9,1.15.81,2.46.52,3.68.77a2,2,0,0,0,1.29-.07c.34-.15.78-.5.94-.47,1.21.22,1.37-1.07,2.17-1.4.26-.11.3-1.22.78-.1.12.26.54.17.79-.06a5.46,5.46,0,0,1,3.36-1.23c.07-.38-.32-.56-.38-1,.74.33,1.48.71,1.41-.81.67,1.29,1.39.23,2,.39a.17.17,0,0,0,0-.32c-.55-.25-.35-.39.07-.44a.47.47,0,0,0,.48-.53,1.15,1.15,0,0,1,.48-.92.79.79,0,0,0,.23-1.17,1,1,0,0,1,.2-1.07c.15-.2.46-.35.29-.62s-.52-.17-.73-.11c-.5.14-.74,0-.68-.49a2.86,2.86,0,0,1,.3-1.07c.39-.46.19-.91.21-1.34,0-.66-.64-.56-1.21-.86a3.22,3.22,0,0,1,.93,0c1,.35.45-.74.86-.94-.77-.58,0-1.24-.08-1.86v0a.23.23,0,0,0,.32-.14v0c.32.19-.26.87.36.79.46-.06,0-.57.17-.85l.21-.26a2.05,2.05,0,0,0,.8.64c.59.31,1.14-.32,1.54.1s.8.1,1.14,0a.58.58,0,0,0,.35-.87.3.3,0,0,1,.1-.4c.55-.29.55-.81.57-1.32,0-.25,0-.45.33-.56.51-.18,1-.42,1.48-.63a.4.4,0,0,1,.57.28c0,.51.55.67.67,1.09-.1,0-.25,0-.25.19a.1.1,0,0,0,.06,0c.16,0,.15-.15.18-.26.28,0,.54,0,.57.4,0,.16,0,.42.23.37s.28-.2.38-.34,0-.59.3-.8c.71-.48.85-1.36,1.38-2l.24,0,0-.08-.2.13c-.43-.11-.36-.42-.24-.71a2.83,2.83,0,0,1,.51-.94,1.37,1.37,0,0,0,.32-1.55c-.08-.3-.33-.62-.07-.94a.63.63,0,0,0-.24-1.08,2.07,2.07,0,0,0,1.07-2.18c0-.14,0-.23.19-.24,1.25-.13,1.57-1,1.74-2.09a4.68,4.68,0,0,1,.44-2,2.6,2.6,0,0,0,.39-1.55.48.48,0,0,0-.68-.49c-.46.23-1.08.37-1.2,1s-.56.58-1.25.5c.78-.57,1-1.11.39-1.91.72.19,1-.07,1.13-.59a9.24,9.24,0,0,1,.39-1c.06-.13,0-.31.26-.28.83.12.8-.87.74-1-.55-.78.39-1,.53-1.44,0-.17.26-.33.28-.59a6.66,6.66,0,0,1,.86-2.3,1.62,1.62,0,0,0,.28-1.1c-.06-.39-.19-1.13.15-1.14,1.11,0,1.05-.95,1.43-1.55.77-1.24.32-2.66.63-4a.55.55,0,0,0,0-.18c-.13-1-.47-2-.56-3a2.43,2.43,0,0,0-1.17-2.17.92.92,0,0,0-1.09,0,.79.79,0,0,0-.29,1,4.64,4.64,0,0,1,.3,1.71,2,2,0,0,0,.06.44c.16.3.67-.2.73.25s-.59.28-.57.7c0,0,0,.12,0,.17.12.62.08,1.08-.66,1.38-.42.18-.76.39-1.11.1s0-.57.16-.83.27-.68-.06-.58-1.24.09-1.22.93c0,.13,0,.32-.14.29-.84-.28-1.55.31-2.31.36a3.26,3.26,0,0,0-2.23.57c-.07,0-.17,0-.26,0a3.12,3.12,0,0,1-1.74.06c-.56-.19-1.12.11-1.68.16-.4,0-.14.7-.62.63a23.3,23.3,0,0,1-3.61-.46,30.87,30.87,0,0,1-4.16-1c.71-.44-.5-.35-.35-.72.38.07.74-.44,1.07-.15s.41.46.54.4a1.13,1.13,0,0,1,1.17.13c.25.14.74.47.84-.24h0l.26,0c.56.09,1.33.5.91-.72,0-.09-.54-.82.33-.9-.75.08-1.41-.15-2.09-.12-.22,0-.44-.06-.33-.23.57-.87-.26-1.66-.09-2.5.06-.29-.11-.39-.37-.26s-.73.26-.83.5c-.41,1-1.26.92-2.08,1,.18.41.14,1,.76.74s1.32.09,2,.19c.19,0,.4.09.23.32s0,.34-.39.26a8,8,0,0,0-3.44,0c-1.26.29-1.48,0-1-1.24a.4.4,0,0,0-.07-.48c-.26-.24-.33,0-.48.16A2,2,0,0,0,82,76a1.83,1.83,0,0,1,.5,1c0,.15,0,.31-.22.33a.23.23,0,0,1-.27-.18c-.25-1.1-1-.65-1.59-.47-.25.07-.44.24-.56-.11-.58-1.78-1.33-3.57,0-5.37.12-.17,0-.49.14-.69.25-.5-.27-1.07.06-1.47a7.59,7.59,0,0,1,2.09-2.24,5.63,5.63,0,0,0,1.62-1.07,4.09,4.09,0,0,1,2.37-1.08c.72-.15,1.06.64,1.76.46a2.84,2.84,0,0,1,2.17.22c.06,0,.23,0,.23,0,.25-1,.81-.2,1.22-.21.18,0,.33.22.55,0s.35-.3.59.23l-.2,0,.19,0c.33-.35.81-.37,1.21-.57h0c1.09.09,2.2.37,3.23-.31,0,0,.16,0,.22.09.51.46,1.2.65,1.65,1.21a2.62,2.62,0,0,0,1.54.8c.55.13.89-.19.76-.67-.33-1.32-.31-2.73-1.15-3.94a3.74,3.74,0,0,1-.74-1.59,11.32,11.32,0,0,1-.17-3.26,3.7,3.7,0,0,0-.77-3,45.21,45.21,0,0,1-2.51-4.31c-.74-1.5-2.16-2.53-2.7-4.18a11.1,11.1,0,0,0-1.85-2.94A16.69,16.69,0,0,0,88.08,39a7.18,7.18,0,0,0-2.84-1.17,6.24,6.24,0,0,0-2.53.16,5.56,5.56,0,0,1-2.81-.35A4.38,4.38,0,0,0,78,36.88a.14.14,0,0,0,0-.23.11.11,0,0,0-.08,0c0,.1,0,.16.09.2s.15.22.13.31-.17,0-.26,0c-.37-.07-.5-.59-1-.51,0-.12-.07-.16-.17-.18l0,0,0,0,.18.19c-.22.39-.81-.27-.78.12.06.62-.32.31-.49.32s-.48-.24-.76,0c.16.48.69.23,1,.47h0a8.29,8.29,0,0,1-5.26-1.93,1.24,1.24,0,0,0-1.75-.07,1.41,1.41,0,0,1-.9.35c-1,0-1.9.64-2.93.66a1.55,1.55,0,0,0-1,.62,6.18,6.18,0,0,1-2.74,2c0-.61.83-.53.88-1.1l.19-.19.15-.08-.13.09-.19.2c-.44,0-.76.52-1.26.36-.06-.07-.12-.14-.18,0a2.32,2.32,0,0,0-1.27.69c.65.41,1.24-.09,1.83,0a2.4,2.4,0,0,1-2.06.59c-.22-.06-.34.09-.52.22-.65.49-1.18,1.29-2.2,1a.35.35,0,0,0-.47.38.82.82,0,0,1-.59.82c-.54.23-.42.71-.56,1.1-.07.2.35.17.17.31s-.36,0-.38-.27a1.88,1.88,0,0,1,0-.53c.24-.84-.31-.69-.73-.54a2.7,2.7,0,0,0-.7.56c.27.43.79.46,1,1a2.41,2.41,0,0,1-.77,0c-.63-.28-.87.17-1,.58a8.82,8.82,0,0,0,.06,4.48c.33,1.22.55,2.46.79,3.69s-.66,2.08-1.25,2.92a6,6,0,0,0-.93,2.68c-.08.54-.13,1.09-.23,1.64a20.1,20.1,0,0,1-2.32,6.36,8.17,8.17,0,0,0-1.19,2.6c-.35,2.1-.88,4.16-1.14,6.28a25.62,25.62,0,0,0,.24,9.28.31.31,0,0,1-.21.41c-.29-.43-.73-.77-.8-1.36-.23-2-.88-3.87-1-5.87,0-.5.26-1,.08-1.49-.32-.93-.66-1.84-1-2.75-.44-1.09-1.1-1.15-2-1.22-.19,0-.5.17-.52-.11s-.12-.69.12-1,.47,0,.65.11a1.82,1.82,0,0,0,1.4.48l.05,0-.07,0c-.16-1.72-.6-2.28-1.91-2.34a1.89,1.89,0,0,0-.26-2,.51.51,0,0,1,0-.59A3.49,3.49,0,0,0,41.29,65a3.54,3.54,0,0,0-.23-2,4.83,4.83,0,0,0-.1,1.19c0,.28.14.64-.35.65-.08-1.06.35-2.08.22-3.13a.17.17,0,0,0,0-.25l.07-.29A.75.75,0,0,0,41,60.9c-.05-2.78-.31-5.56-.18-8.35a2.16,2.16,0,0,0-.13-.7A14.15,14.15,0,0,1,41,44.24,16.38,16.38,0,0,0,41.74,39a7.47,7.47,0,0,1,1.91-5.59c1.22-1.24,1.89-2.8,3.07-4a7.65,7.65,0,0,0,.83-1.22l.21.53c-.15.05-.27.1-.09.26-.08-.08-.14-.07-.2,0s0,.06,0,.09l.16-.12.28-.07A13.17,13.17,0,0,0,50,27.05c.38-.37.66-.9,1.27-1h0c.24.33.41.06.57-.09a13.45,13.45,0,0,0,1.07-1.51,7.72,7.72,0,0,1,3.45-2.61,1,1,0,0,0,.67-.57c-.44-.51-1,0-1.48-.11.76-1.12,2.18-.77,3.11-1.52-.34-.2-.68.19-1,0a2.15,2.15,0,0,1,1.15-.52.57.57,0,0,1,.56.19c.19.17-.62.27,0,.42.29.07.41-.1.34-.43s.19-.16.32-.18c1.13-.15,2.25-.33,3.37-.42a2.78,2.78,0,0,1,1.83.24c.79.56,1.61.09,2.41.24.16,0,.31-.23.26-.41-.15-.61.34-.25.51-.35.18.42.31.19.58,0A8.76,8.76,0,0,1,73,16.86a3.09,3.09,0,0,0,1.55-.36,5.8,5.8,0,0,1,4.27-1.17A19.55,19.55,0,0,0,84,15.8c.19,0,.55-.06.36.37h0v0a1.53,1.53,0,0,1,1.26-.32,18.79,18.79,0,0,1,2.55.49c1.38.37,2.51,1.31,3.83,1.82,1.48.57,2.74,1.55,4.24,2.05a18.32,18.32,0,0,1,1.93,1c.68.33,1.07,1,1.79,1.33.5.21,1.09.25,1.42.93.19.38.92.6,1.49.72a5.51,5.51,0,0,1,2.86,1.95h0a3.76,3.76,0,0,0-2-.8,48,48,0,0,0,3.94,2.8,7.65,7.65,0,0,1,3.56,4.3,12.26,12.26,0,0,0,2,4.16,22.23,22.23,0,0,1,2.86,5.8c.21.52,0,.58-.39.46,0,.58.55.47.84.71l.11.86a.89.89,0,0,0,.06,1.11l.08.51c-.25.24-.1.5,0,.76.2.86.63,1.65.87,2.51a6.73,6.73,0,0,0,.77,2.26l.16,1.89c-.3.28-.22.58,0,.88a13.56,13.56,0,0,0,.33,3.81c0,.13.13.29-.05.39-.55.31-.57.31-.49.84s.28,1.23.31,1.85c.08,1.3.4,2.67-.35,3.84a1.69,1.69,0,0,0-.18,1.52c.32,1.27.89,2.55.16,3.88-.13.24.06.34.47.25v0a4.77,4.77,0,0,1-1.1,1.49.22.22,0,0,0,0,.18,23.07,23.07,0,0,0,.43,2.32,5.83,5.83,0,0,1-1.24,3.53,3.66,3.66,0,0,0-.67,2.41,9.08,9.08,0,0,1-1.35,4.92,7.43,7.43,0,0,0-.74,1.23c-.36,1-.37,2.08-1.51,2.74-.41.23-.79.83-1.28,1A1.9,1.9,0,0,0,110,92.11a50.56,50.56,0,0,0-.55,5.76.29.29,0,0,0,0,.16,1.84,1.84,0,0,0-.69,2.18c-.19.34.23.57.17.89-.51.7-.13,1.34.13,2,.19,1.84.41,3.68.56,5.53.06.79.5,1,1.17,1.22a12.25,12.25,0,0,1,5.76,3.29,6.5,6.5,0,0,0,4.75,2,6.69,6.69,0,0,1,2.65.73c1.19.56,2.25,1.34,3.45,1.89a22.61,22.61,0,0,1,3.84,2.09,87.77,87.77,0,0,0,7.9,5.3c3.16,1.82,6.28,3.71,9.41,5.57C149.93,131.61,151.21,132.74,152.74,133.49Zm-44.31-23.31a10,10,0,0,0-.69,2.08c-.61,1.94-1.48,3.77-2.24,5.65a22.23,22.23,0,0,1-1.71,3.71c-.53.85-.76,1-1.66.59a.69.69,0,0,0-.82.21,2.57,2.57,0,0,0-.57.67c-.36.85-1.71,1.14-1.32,2.44,0,.2-.16.93-.81.55-.37-.22-.6.08-.77.26s.15.26.25.4,0,.34-.09.49-.27.36-.42.23c-.61-.54-.87.13-1.27.33s-1,.84-.87,1.25c.12.73-.69,1.23-.31,2,.08.17-.2.23-.36.31-1,.52-2.06.91-2.25,2.22a.57.57,0,0,1-.52.53.65.65,0,0,0-.55.72c.23,1-.43,1.2-1.13,1.45a5.15,5.15,0,0,0-3,2.65c-.12.25-.32.41-.34.77,0,.65.21,1.59-1,1.63a.46.46,0,0,0-.31.28c0,.62-.43.79-1,.8a.26.26,0,0,0-.26.3.26.26,0,0,0,.17.17c1.12.12,2.27.38,3.3-.25.56-.33,1.19-.23,1.74-.49.14.41.45.35.71.18s-.46-.35,0-.63c.61.44,1,.31,1.28-.47,0-.14.24-.36.36-.36.91,0,1.42-.64,2.07-1.06.06,0,.16,0,.23,0,.13.26-.4.46,0,.72a2.28,2.28,0,0,1,.74-.29c2.24-.08,3.69-1.68,5.36-2.82.65-.45.93-1.3,1.87-1.53a5,5,0,0,0,1.19-.38,17.39,17.39,0,0,0,3-2.4,18.39,18.39,0,0,0,3.68-4.18c.27-.45.62-.87.23-1.46a.74.74,0,0,1,.07-.78c.52-.74.08-1.42-.23-2a1.19,1.19,0,0,1-.09-1,6.4,6.4,0,0,0,.14-3.42,8.78,8.78,0,0,1-.25-3,12.71,12.71,0,0,0,.25-3c0-.28,0-.71-.35-.73s-.27.4-.32.65a11.19,11.19,0,0,1-1.91,4.27c.55-2.6,2.13-5,1.66-7.77-.45,0-.05.55-.41.47S108.85,110.41,108.43,110.18Zm3.28,5.81c-.51.85-.19,1.73-.16,2.6,0,2.06-.06,4.13.16,6.19a.71.71,0,0,0,.63.73c.33,0,.52-.24.58-.56a5.26,5.26,0,0,1,.42-1.08,5.4,5.4,0,0,0,.64-2.18,20.53,20.53,0,0,0-.66-3C113.1,117.57,112.15,117,111.71,116ZM71.37,140c.38.66.39,1.53,1,2.11a1.85,1.85,0,0,0,1.48.73c.8-.13,1.67.74,2.4-.19a.47.47,0,0,1,.29.14c.22.28.38.25.51-.06s0-.48-.3-.52c-.49-.09-.81-.47-1.22-.7-.75-.42-1.25-1.16-2.07-1.5-.47-.19-1.42-.09-.88-1.12,0-.05-.11-.2-.18-.29-.32-.46-.49-1-1-1.36-.24-.16-.13-.82-.63-.51s-.14.68,0,1a1.59,1.59,0,0,0,.51.61c.38.29.56.62.24,1.07A2.36,2.36,0,0,0,71.37,140Zm44.32-58.76c-.07-.29.17-.74-.24-.94s-.68.23-1,.48a2.2,2.2,0,0,0-.66,1.3,4.51,4.51,0,0,1-1.11,2.65,3.6,3.6,0,0,0-1.15,2.88c0,.15.06.3.27.27.52-.06,1.13-.17,1.2-.74a3.32,3.32,0,0,1,1-1.8A6.27,6.27,0,0,0,115.69,81.19Zm-9.57,31.86c-.25,0-.36.22-.48.39a9.31,9.31,0,0,0-1,2.69,16.62,16.62,0,0,1-1.57,3.16c-.15.26-.32.51-.13.69s.44-.11.62-.26a.62.62,0,0,0,.24-.27c.72-1.93,1.94-3.66,2.43-5.69C106.33,113.53,106.43,113.23,106.12,113.05Zm-11-36.81a1.85,1.85,0,0,0,.66-.09c.26-.14.72-.21.58-.66s-.47-.24-.77-.18-.6,0-.89.08-.81,0-.82.35.53.37.84.49A1.29,1.29,0,0,0,95.1,76.24ZM94.72,73a.52.52,0,0,0-.62-.43c-.56.09-.51.64-.65,1-.07.19.12.32.34.24C94.19,73.67,94.69,73.64,94.72,73ZM41,45.2a6.42,6.42,0,0,0-.26,4.15A33.75,33.75,0,0,1,41,45.2ZM44.32,34l-.21-.1a3.78,3.78,0,0,0-.94,2.21ZM90.8,71.55a.29.29,0,0,0-.33-.23c-.22,0-.43.06-.43.32a.36.36,0,0,0,.39.39C90.64,72,90.8,71.87,90.8,71.55Zm-14-55.8c.72.38,1.14,0,1.8-.07C77.88,15.25,77.43,15.53,76.78,15.75ZM59.66,20.89l-1.22.51C58.8,21.12,59.35,21.3,59.66,20.89ZM89.25,76.53l.06,0V76.5ZM57.34,21s0-.06-.06-.06,0,0-.06.06,0,.05.06.05S57.32,21,57.34,21Z" transform="translate(-4.75 -3.14)"/><path class="cls-5" d="M58.16,115.5a30.16,30.16,0,0,1-4.29-6C51.88,105.91,51,102,50,98.13c-.24-.93-.48-1.86-.76-2.77-.22-.72-.95-1-1.46-1.4a5.61,5.61,0,0,1-2.46-4.07,5.1,5.1,0,0,0-1-2.19,22.14,22.14,0,0,1-2.43-5.87c-.48-1.92-1.39-3.68-2-5.53a3.61,3.61,0,0,1,0-3,3.27,3.27,0,0,0,.24-1.59,2.11,2.11,0,0,1,.17-1.14,2.69,2.69,0,0,0-.09-3.2c-.25-.33.35-.53.22-.93a2,2,0,0,0-.94.43c-.21.14-.47.26-.65,0s.11-.37.21-.54.21-.33.28-.32c1.06.18,1-.71,1.34-1.29.49,0,.35-.37.35-.65a4.83,4.83,0,0,1,.1-1.19,3.54,3.54,0,0,1,.23,2,3.49,3.49,0,0,1-.19,1.65.51.51,0,0,0,0,.59,1.89,1.89,0,0,1,.26,2c1.31.06,1.75.62,1.91,2.34h0a1.82,1.82,0,0,1-1.4-.48c-.18-.12-.45-.32-.65-.11s-.15.65-.12,1,.33.09.52.11c.85.07,1.51.13,2,1.22.37.91.71,1.82,1,2.75.18.54-.1,1-.08,1.49.08,2,.73,3.9,1,5.87.07.59.51.93.8,1.36a.31.31,0,0,0,.21-.41,25.62,25.62,0,0,1-.24-9.28c.26-2.12.79-4.18,1.14-6.28a8.17,8.17,0,0,1,1.19-2.6A20.1,20.1,0,0,0,51,59.81c.1-.55.15-1.1.23-1.64a6,6,0,0,1,.93-2.68c.59-.84,1.46-1.79,1.25-2.92s-.46-2.47-.79-3.69a8.82,8.82,0,0,1-.06-4.48c.11-.41.35-.86,1-.58a2.41,2.41,0,0,0,.77,0c-.17-.52-.69-.55-1-1a2.7,2.7,0,0,1,.7-.56c.42-.15,1-.3.73.54a1.88,1.88,0,0,0,0,.53c0,.24.28.35.38.27s-.24-.11-.17-.31c.14-.39,0-.87.56-1.1a.82.82,0,0,0,.59-.82.35.35,0,0,1,.47-.38c1,.26,1.55-.54,2.2-1,.18-.13.3-.28.52-.22a2.4,2.4,0,0,0,2.06-.59l0,0a6.18,6.18,0,0,0,2.74-2,1.55,1.55,0,0,1,1-.62c1,0,1.91-.64,2.93-.66a1.41,1.41,0,0,0,.9-.35,1.24,1.24,0,0,1,1.75.07,8.29,8.29,0,0,0,5.26,1.93v0c-.27-.24-.8,0-1-.47.28-.2.52.05.76,0s.55.3.49-.32c0-.39.56.27.78-.12h0c.45-.08.58.44,1,.51.09,0,.22.17.26,0s-.08-.2-.13-.31l0,0a4.38,4.38,0,0,1,1.88.76,5.56,5.56,0,0,0,2.81.35,6.24,6.24,0,0,1,2.53-.16A7.18,7.18,0,0,1,88.08,39a16.69,16.69,0,0,1,3.31,3.66,11.1,11.1,0,0,1,1.85,2.94c.54,1.65,2,2.68,2.7,4.18a45.21,45.21,0,0,0,2.51,4.31,3.7,3.7,0,0,1,.77,3,11.32,11.32,0,0,0,.17,3.26,3.74,3.74,0,0,0,.74,1.59c.84,1.21.82,2.62,1.15,3.94.13.48-.21.8-.76.67a2.62,2.62,0,0,1-1.54-.8c-.45-.56-1.14-.75-1.65-1.21-.06-.05-.19-.12-.22-.09-1,.68-2.14.4-3.23.31,0-.07,0-.15-.09-.1l.1.09c-.4.2-.88.22-1.21.57h0c-.25-.53-.29-.57-.6-.23s-.37,0-.55,0c-.41,0-1-.75-1.22.21,0,0-.17,0-.23,0a2.84,2.84,0,0,0-2.17-.22c-.7.18-1-.61-1.76-.46a4.09,4.09,0,0,0-2.37,1.08,5.63,5.63,0,0,1-1.62,1.07A7.59,7.59,0,0,0,80.09,69c-.33.4.19,1-.06,1.47-.1.2,0,.52-.14.69-1.33,1.8-.58,3.59,0,5.37.12.35.31.18.56.11.6-.18,1.34-.63,1.59.47a.23.23,0,0,0,.27.18c.2,0,.24-.18.22-.33a1.83,1.83,0,0,0-.5-1,2,2,0,0,1,.27-3.14c.15-.13.22-.4.48-.16a.4.4,0,0,1,.07.48c-.46,1.23-.24,1.53,1,1.24a8,8,0,0,1,3.44,0c.37.08.32-.15.39-.26s0-.29-.23-.32c-.65-.1-1.27-.46-2-.19s-.58-.33-.76-.74c.82,0,1.67,0,2.08-1,.1-.24.53-.35.83-.5s.43,0,.37.26c-.17.84.66,1.63.09,2.5-.11.17.11.24.33.23.68,0,1.34.2,2.09.12-.87.08-.36.81-.33.9.42,1.22-.35.81-.91.72l-.26,0,0,0,0,0c-.1.71-.59.38-.84.24A1.13,1.13,0,0,0,87,76.2c-.13.06-.1,0-.54-.4s-.69.22-1.07.15c-.15.37,1.06.28.35.72a30.87,30.87,0,0,0,4.16,1,23.3,23.3,0,0,0,3.61.46c.48.07.22-.59.62-.63.56,0,1.12-.35,1.68-.16a3.12,3.12,0,0,0,1.74-.06c.09,0,.19,0,.26,0a3.26,3.26,0,0,1,2.23-.57c.76,0,1.47-.64,2.31-.36.1,0,.15-.16.14-.29,0-.84.77-.8,1.22-.93s.22.36.06.58-.53.53-.16.83.69.08,1.11-.1c.74-.3.78-.76.66-1.38,0,0,0-.12,0-.17,0-.42.61-.35.57-.7s-.57,0-.73-.25a2,2,0,0,1-.06-.44,4.64,4.64,0,0,0-.3-1.71.79.79,0,0,1,.29-1,.92.92,0,0,1,1.09,0A2.43,2.43,0,0,1,107.47,73c.09,1,.43,2,.56,3a.55.55,0,0,1,0,.18c-.31,1.3.14,2.72-.63,4-.38.6-.32,1.52-1.43,1.55-.34,0-.21.75-.15,1.14a1.62,1.62,0,0,1-.28,1.1,6.66,6.66,0,0,0-.86,2.3c0,.26-.23.42-.28.59-.14.48-1.08.66-.53,1.44.06.09.09,1.08-.74,1-.22,0-.2.15-.26.28a9.24,9.24,0,0,0-.39,1c-.13.52-.41.78-1.13.59.65.8.39,1.34-.39,1.91.69.08,1.11.22,1.25-.5s.74-.75,1.2-1a.48.48,0,0,1,.68.49,2.6,2.6,0,0,1-.39,1.55,4.68,4.68,0,0,0-.44,2c-.17,1-.49,2-1.74,2.09-.16,0-.2.1-.19.24a2.07,2.07,0,0,1-1.07,2.18.63.63,0,0,1,.24,1.08c-.26.32,0,.64.07.94a1.37,1.37,0,0,1-.32,1.55,2.83,2.83,0,0,0-.51.94c-.12.29-.19.6.24.71v0c-.53.62-.67,1.5-1.38,2-.31.21-.13.57-.3.8s-.24.32-.38.34-.22-.21-.23-.37c0-.38-.29-.4-.57-.4v0c-.12-.42-.64-.58-.67-1.09a.4.4,0,0,0-.57-.28c-.49.21-1,.45-1.48.63-.28.11-.32.31-.33.56,0,.51,0,1-.57,1.32a.3.3,0,0,0-.1.4.58.58,0,0,1-.35.87c-.34.1-.72.45-1.14,0s-1,.21-1.54-.1a2.05,2.05,0,0,1-.8-.64l-.21.26c-.16.28.29.79-.17.85-.62.08,0-.6-.36-.79l0-.06,0,0c-.06.16-.18.18-.33.14-.87,0-1,.26-.73,1.17.36-.32.16-1,.75-1.19,0,.62-.69,1.28.08,1.86-.41.2.17,1.29-.86.94a3.22,3.22,0,0,0-.93,0c.57.3,1.25.2,1.21.86,0,.43.18.88-.21,1.34a2.86,2.86,0,0,0-.3,1.07c-.06.45.18.63.68.49.21-.06.58-.11.73.11s-.14.42-.29.62a1,1,0,0,0-.2,1.07.79.79,0,0,1-.23,1.17,1.15,1.15,0,0,0-.48.92.47.47,0,0,1-.48.53c-.42,0-.62.19-.07.44a.17.17,0,0,1,0,.32c-.65-.16-1.37.9-2-.39.07,1.52-.67,1.14-1.41.81.06.43.45.61.38,1a5.46,5.46,0,0,0-3.36,1.23c-.25.23-.67.32-.79.06-.48-1.12-.52,0-.78.1-.8.33-1,1.62-2.17,1.4-.16,0-.6.32-.94.47a2,2,0,0,1-1.29.07c-1.22-.25-2.53,0-3.68-.77-.37-.27-.3-1-1-.9-.09,0-.22-.16-.31-.14-.83.21-.83-.27-.68-.8-.25-.23-.76,1-.79-.21,0-.2-.46-.12-.71,0s-.31.46-.49.2a6,6,0,0,0-2.57-1.69c-1.17-.6-1.12-2-2.13-2.6-.08,0-.05-.35,0-.51s0-.5-.2-.48c-.8.06-1-.59-1.25-1.06s-.41-1-1.19-.61c-.32.17-.44-.23-.42-.49s.5-.51,0-.55S58.61,114.66,58.16,115.5Zm3.71-41.23c.1.21.13.48.41.6.16-.48-.06-.59-.42-.58.3-.4.7-.2,1.08-.18.05.08,0,.26.16.23a.16.16,0,0,0,.08-.13c0-.15-.15-.13-.26-.08,0-.68.4-.4.71-.26.13.06.18.47.34.2.39-.66.84,0,1.25-.13.09,0,.33.14.34.12.58-.9.93-.18,1.24.21s.63.37.8.07A1.26,1.26,0,0,1,69,73.76c.6.07.56-.32.38-.68-.1-.21-.38-.33-.45-.54s-.24-.66.25-.52c.76.22,1.7.2,2.09,1.14.06.14.18.33.51.18-.29-.87-.06-1.88-.76-2.65A.78.78,0,0,1,70.9,70c.11-1-.16-1.52-1.15-1.7s-1.32-.89-2-1.34c-.38-.26-.27-.56.22-.64l.05.14.07-.08-.14,0c-.29-.92-1.23-.63-1.72-.64a21,21,0,0,0-3.45-.19c-.47.06-1.11.23-1.4,0-.76-.6-1.37-.13-2,.06.14-.6.06-.75-.41-.49a3.16,3.16,0,0,1-2.86-.24c-1.87-.78-1.81-.92-3.46.36a2.19,2.19,0,0,1-.55.28,3.08,3.08,0,0,0-1.9,3,1.32,1.32,0,0,1,0,.53c-.29.57.13,1,.18,1.54.11,1.09.81.37,1.22.49.21.06.76.46.52-.33,0-.16.24-.19.41-.25a5.26,5.26,0,0,1,2.89.11,5.26,5.26,0,0,1-2.24.56c.51.33,1.23.55.2,1,.26.33-.37.73-.08.86,1,.43.13.58-.1.75a11.58,11.58,0,0,1-1.13.67c.66-.15,1,1.08,1.79.43,0,0,.21,0,.22.08.19.81.62.21.82.08,1-.66,2.07-1.27,3.36-.62,1,.51,2.07.22,3.1.24-.11-.17-.63-.13-.37-.51s.5-.36.72.06C61.69,74.21,61.8,74.23,61.87,74.27Zm22.28,27.62a2,2,0,0,0-1.54-.32c-.58.15-1.19.23-1.78.4a2.51,2.51,0,0,1-2,.14,1.1,1.1,0,0,0-1.12.07c-.8.6-1.87.4-2.66,1-.16.11-.34,0-.51-.06a10.21,10.21,0,0,0-5.4-.83c-1.12.12-2.26.1-3.36.31-.75.15-1.65.19-2.12,1-.2.33-.85.64-.51,1s.89,0,1.29-.24a1,1,0,0,1,1.08-.22c1.33.62,2.55,1.5,4.11,1.52.21,0,.37.13.51-.12s0-.34-.15-.51c-.47-.38-.34-.86-.05-1.28s.69-.22,1.05-.1c.19.06.39.28.58.13.77-.6,1.46-.22,2.17.11.33.16.83.55,1,.44a3.26,3.26,0,0,1,2.61-.21c.6.09,1,.14,1,.79s-.37,1-1,1.12a4,4,0,0,1-2.21-.31c-1-.49-1.68.41-2.54.48.74.37,1.52.13,2.26.24a12.78,12.78,0,0,0,4.93.13,1.18,1.18,0,0,1,.92.28c.75.59.67.93-.18,1.43a20.24,20.24,0,0,0-3.22,1.86,3.18,3.18,0,0,1-3.18.71c-.5-.14-1-.38-1.43,0s.4.68.36,1.28c-.32-.28-.9,0-.93-.36s0-.47-.28-.43c-.46.06-1-.2-1.37.14s.5,2,1.13,2c.23,0,.41,0,.48-.28s0-.45.24-.55c.43,1.37,2.08,1.18,2.78,2.18,0,0,.22,0,.34,0,1.74-.4,3.53-.51,5.24-1,.58-.17,1.16-.28,1.49-.89.22-.39.75-.71,1.05-.43.95.89,1-.2,1.29-.55.6-.8.4-1.92,1-2.78a10.32,10.32,0,0,0,.79-2c.13-.31.06-.52-.25-.48-1.35.18-.88-.47-.53-1.09a3.05,3.05,0,0,0,.17-.51c.21-.78,1.5-1.32,2.06-.77s1.2,0,1.57.65c.08.12.31-.12.29-.39-.06-.76-.92-1.61.2-2.27a.42.42,0,0,0-.07-.32c-.39-.35,0-.53.23-.73-.12,0-.17-.09-.22-.1-.75-.19-1.73.25-2.19-.82a.35.35,0,0,0-.62.29c0,.29-.17.61-.29.39-.4-.71-.72-.1-1.06,0s-.84.59-1.33-.09Zm-8.64-4.64c.37.27.7.77,1,.35.53-.68,1.09-.47,1.72-.33a4.87,4.87,0,0,0,4.11-.68,3.23,3.23,0,0,1,2.43-.81.31.31,0,0,0,.36-.21,5.07,5.07,0,0,0,.62-1.84,11.14,11.14,0,0,0-.37-2.37,21.59,21.59,0,0,0-1-3.79c-.07-.19-.16-.48-.41-.4s-.18.41-.07.6a10.16,10.16,0,0,1,.75,2.65,1.56,1.56,0,0,1-1.67,2,11.72,11.72,0,0,1-1.67-.32,4.17,4.17,0,0,0-3.54.79,9.43,9.43,0,0,1-3.64,1.69A2.64,2.64,0,0,1,72,94a6.73,6.73,0,0,0-2.85-1.52c-.88-.11-1.37.07-1.52.79-.11.56.48,1.45,1.09,1.39a12.08,12.08,0,0,1,2.94.51,2.14,2.14,0,0,1,1.86,1.66c.12.46.32,1.14.89,1.25A.81.81,0,0,0,75.51,97.25ZM66.16,74.38c-.54.32-.53,1-1.27,1.26a24.74,24.74,0,0,1-4,1,7.18,7.18,0,0,0-1.55.39c-.45.19-1,0-1.39.44a30.63,30.63,0,0,0,9-2C66,75.36,66,75.36,66.16,74.38ZM50.88,71.51c-.11-.56-.55-.31-.81-.44a.31.31,0,0,0-.49.3c0,.49.23.93.75.94S50.25,71.48,50.88,71.51Zm18.26,34.33a1.36,1.36,0,0,0-1,1.21c0,.15,0,.3.26.25a4.69,4.69,0,0,0,1-1.3A.18.18,0,0,0,69.14,105.84ZM55.66,44.15c-.25.05-.61-.35-1.1-.23C54.89,44.68,55.45,44,55.66,44.15ZM99.07,106c0-.14-.1-.22-.22-.17a.41.41,0,0,0-.19.25c0,.14.1.18.23.17S99.06,106.15,99.07,106ZM73,114a.69.69,0,0,0-.2-.09s-.09.12-.08.13a1.18,1.18,0,0,0,.18.13Zm-3.44-46.3-.06-.06s-.05,0-.05.06,0,0,.05.06Zm-1.33-.87s.05,0,.05,0,0,0,0-.06,0,0,0,.05S68.22,66.83,68.24,66.85Z" transform="translate(-4.75 -3.14)"/><path class="cls-5" d="M108.43,110.18c.42.23,0,.81.45.92s0-.51.41-.47c.47,2.78-1.11,5.17-1.66,7.77a11.19,11.19,0,0,0,1.91-4.27c0-.25,0-.67.32-.65s.3.45.35.73a12.71,12.71,0,0,1-.25,3,8.78,8.78,0,0,0,.25,3,6.4,6.4,0,0,1-.14,3.42,1.19,1.19,0,0,0,.09,1c.31.61.75,1.29.23,2a.74.74,0,0,0-.07.78c.39.59,0,1-.23,1.46a18.39,18.39,0,0,1-3.68,4.18,17.39,17.39,0,0,1-3,2.4,5,5,0,0,1-1.19.38c-.94.23-1.22,1.08-1.87,1.53-1.67,1.14-3.12,2.74-5.36,2.82a2.28,2.28,0,0,0-.74.29c-.36-.26.17-.46,0-.72-.07,0-.17,0-.23,0-.65.42-1.16,1.1-2.07,1.06-.12,0-.32.22-.36.36-.23.78-.67.91-1.28.47-.44.28.31.44,0,.63s-.57.23-.71-.18c-.55.26-1.18.16-1.74.49-1,.63-2.18.37-3.3.25a.26.26,0,0,1-.17-.17.26.26,0,0,1,.26-.3c.55,0,.93-.18,1-.8a.46.46,0,0,1,.31-.28c1.17,0,.92-1,1-1.63,0-.36.22-.52.34-.77a5.15,5.15,0,0,1,3-2.65c.7-.25,1.36-.45,1.13-1.45a.65.65,0,0,1,.55-.72.57.57,0,0,0,.52-.53c.19-1.31,1.29-1.7,2.25-2.22.16-.08.44-.14.36-.31-.38-.73.43-1.23.31-2-.08-.41.35-1,.87-1.25s.66-.87,1.27-.33c.15.13.34-.07.42-.23s.22-.3.09-.49-.53-.12-.25-.4.4-.48.77-.26c.65.38.86-.35.81-.55-.39-1.3,1-1.59,1.32-2.44a2.57,2.57,0,0,1,.57-.67.69.69,0,0,1,.82-.21c.9.38,1.13.26,1.66-.59a22.23,22.23,0,0,0,1.71-3.71c.76-1.88,1.63-3.71,2.24-5.65A10,10,0,0,1,108.43,110.18Z" transform="translate(-4.75 -3.14)"/><path class="cls-5" d="M111.71,116c.44,1,1.39,1.58,1.61,2.67a20.53,20.53,0,0,1,.66,3,5.4,5.4,0,0,1-.64,2.18,5.26,5.26,0,0,0-.42,1.08c-.06.32-.25.61-.58.56a.71.71,0,0,1-.63-.73c-.22-2.06-.11-4.13-.16-6.19C111.52,117.72,111.2,116.84,111.71,116Z" transform="translate(-4.75 -3.14)"/><path class="cls-5" d="M71.37,140a2.36,2.36,0,0,1,.19-.57c.32-.45.14-.78-.24-1.07a1.59,1.59,0,0,1-.51-.61c-.16-.34-.48-.74,0-1s.39.35.63.51c.49.33.66.9,1,1.36.07.09.21.24.18.29-.54,1,.41.93.88,1.12.82.34,1.32,1.08,2.07,1.5.41.23.73.61,1.22.7.28,0,.43.22.3.52s-.29.34-.51.06a.47.47,0,0,0-.29-.14c-.73.93-1.6.06-2.4.19a1.85,1.85,0,0,1-1.48-.73C71.76,141.48,71.75,140.61,71.37,140Z" transform="translate(-4.75 -3.14)"/><path class="cls-5" d="M115.69,81.19a6.27,6.27,0,0,1-1.6,4.1,3.32,3.32,0,0,0-1,1.8c-.07.57-.68.68-1.2.74-.21,0-.23-.12-.27-.27a3.6,3.6,0,0,1,1.15-2.88A4.51,4.51,0,0,0,113.83,82a2.2,2.2,0,0,1,.66-1.3c.28-.25.51-.68,1-.48S115.62,80.9,115.69,81.19Z" transform="translate(-4.75 -3.14)"/><path class="cls-5" d="M106.12,113.05c.31.18.21.48.15.71-.49,2-1.71,3.76-2.43,5.69a.62.62,0,0,1-.24.27c-.18.15-.34.54-.62.26s0-.43.13-.69a16.62,16.62,0,0,0,1.57-3.16,9.31,9.31,0,0,1,1-2.69C105.76,113.27,105.87,113.09,106.12,113.05Z" transform="translate(-4.75 -3.14)"/><path class="cls-5" d="M116.84,46a1.06,1.06,0,0,1,.59,1.23,2.37,2.37,0,0,0,.69,1.65,2.34,2.34,0,0,1,.32,2.65,6.73,6.73,0,0,1-.77-2.26c-.24-.86-.67-1.65-.87-2.51C116.74,46.5,116.59,46.24,116.84,46Z" transform="translate(-4.75 -3.14)"/><path class="cls-5" d="M95.1,76.24a1.29,1.29,0,0,1-.4,0c-.31-.12-.85-.09-.84-.49s.52-.3.82-.35.6,0,.89-.08.64-.22.77.18-.32.52-.58.66A1.85,1.85,0,0,1,95.1,76.24Z" transform="translate(-4.75 -3.14)"/><path class="cls-5" d="M61,38.48c.49.16.81-.33,1.25-.36l0,0c-.05.57-.88.49-.88,1.1l0,0c-.59-.1-1.18.4-1.83,0a2.32,2.32,0,0,1,1.27-.69v0l.12.2.08-.2Z" transform="translate(-4.75 -3.14)"/><path class="cls-5" d="M94.72,73c0,.65-.53.68-.93.83-.22.08-.41,0-.34-.24.14-.38.09-.93.65-1A.52.52,0,0,1,94.72,73Z" transform="translate(-4.75 -3.14)"/><path class="cls-5" d="M41,45.2a33.75,33.75,0,0,0-.26,4.15A6.42,6.42,0,0,1,41,45.2Z" transform="translate(-4.75 -3.14)"/><path class="cls-5" d="M44.32,34l-1.15,2.11a3.78,3.78,0,0,1,.94-2.21Z" transform="translate(-4.75 -3.14)"/><path class="cls-5" d="M109.37,98c-.29.71.23,1.66-.69,2.18A1.84,1.84,0,0,1,109.37,98Z" transform="translate(-4.75 -3.14)"/><path class="cls-5" d="M116.7,44.38c.23.09.55-.26.71.06s-.17.38-.33.55a2.14,2.14,0,0,0-.32.5A.89.89,0,0,1,116.7,44.38Z" transform="translate(-4.75 -3.14)"/><path class="cls-5" d="M90.8,71.55c0,.32-.16.46-.37.48a.36.36,0,0,1-.39-.39c0-.26.21-.31.43-.32A.29.29,0,0,1,90.8,71.55Z" transform="translate(-4.75 -3.14)"/><path class="cls-5" d="M108.85,101.1c.17.65.54,1.29.13,2C108.72,102.44,108.34,101.8,108.85,101.1Z" transform="translate(-4.75 -3.14)"/><path class="cls-5" d="M76.78,15.75c.65-.22,1.1-.5,1.8-.07C77.92,15.73,77.5,16.13,76.78,15.75Z" transform="translate(-4.75 -3.14)"/><path class="cls-5" d="M59.66,20.89c-.31.41-.86.23-1.22.51Z" transform="translate(-4.75 -3.14)"/><path class="cls-5" d="M118.6,53.42a.64.64,0,0,1,0,.88C118.38,54,118.3,53.7,118.6,53.42Z" transform="translate(-4.75 -3.14)"/><path class="cls-5" d="M97.13,107.56c0,.11,0,.25-.18.26a.1.1,0,0,1-.06,0c0-.17.15-.16.25-.19Z" transform="translate(-4.75 -3.14)"/><path class="cls-5" d="M92.68,65.32l-.19,0,.2,0Z" transform="translate(-4.75 -3.14)"/><path class="cls-5" d="M78,36.86c-.08,0-.14-.1-.09-.2a.11.11,0,0,1,.08,0,.14.14,0,0,1,0,.23Z" transform="translate(-4.75 -3.14)"/><path class="cls-5" d="M60.78,38.48c.06-.14.12-.07.18,0v0h-.2Z" transform="translate(-4.75 -3.14)"/><path class="cls-5" d="M100,105.23l.2-.13,0,.08-.24,0Z" transform="translate(-4.75 -3.14)"/><path class="cls-5" d="M62.41,37.92l.13-.09-.15.08Z" transform="translate(-4.75 -3.14)"/><path class="cls-5" d="M62.39,37.91l-.19.19,0,0,.19-.2Z" transform="translate(-4.75 -3.14)"/><polygon class="cls-5" points="84.5 73.39 84.56 73.36 84.56 73.42 84.5 73.39"/><path class="cls-5" d="M77,36.68l-.18-.19v0c.1,0,.18.06.17.18Z" transform="translate(-4.75 -3.14)"/><path class="cls-5" d="M76.8,36.49l0,0,0,0Z" transform="translate(-4.75 -3.14)"/><path class="cls-5" d="M47.64,28.93l-.16.12s0-.07,0-.09.12-.1.2,0Z" transform="translate(-4.75 -3.14)"/><path class="cls-5" d="M47.67,28.94c-.18-.16-.06-.21.09-.26l.16.18-.28.07Z" transform="translate(-4.75 -3.14)"/><path class="cls-6" d="M40.87,61.43c-.09-.12-.1-.22.07-.29C40.92,61.24,40.9,61.33,40.87,61.43Z" transform="translate(-4.75 -3.14)"/><path class="cls-5" d="M57.34,21s0,.05-.06.05,0,0-.06-.05,0-.06.06-.06S57.32,20.93,57.34,21Z" transform="translate(-4.75 -3.14)"/><polygon class="cls-5" points="79.59 13.02 79.59 13.05 79.57 13.03 79.59 13.02"/><path class="cls-5" d="M43.31,71.59l.07,0-.05,0Z" transform="translate(-4.75 -3.14)"/><path class="cls-4" d="M51.7,23.64a4.71,4.71,0,0,1-1.88,1.48,5.06,5.06,0,0,1,1.76-1.62Z" transform="translate(-4.75 -3.14)"/><path class="cls-4" d="M53.12,22.34a5.69,5.69,0,0,1,1.72-1,4.06,4.06,0,0,1-1.59,1.12Z" transform="translate(-4.75 -3.14)"/><path class="cls-4" d="M53.25,22.48l-.7.56c0-.43.34-.52.57-.7Z" transform="translate(-4.75 -3.14)"/><path class="cls-4" d="M51.58,23.5a1.25,1.25,0,0,1,.8-.53c-.08.44-.4.54-.68.67Z" transform="translate(-4.75 -3.14)"/><path class="cls-4" d="M54.81,21.52c.1-.31.29-.43.44-.35s0,.19-.1.25A2.21,2.21,0,0,1,54.81,21.52Z" transform="translate(-4.75 -3.14)"/><path class="cls-4" d="M105.71,26.09l.15,0-.13,0Z" transform="translate(-4.75 -3.14)"/><path class="cls-4" d="M51.44,25.88v-.13l.09.05-.12.07Z" transform="translate(-4.75 -3.14)"/><path class="cls-4" d="M51.42,25.87a.16.16,0,0,1-.18.18h0c-.07-.18,0-.2.18-.18Z" transform="translate(-4.75 -3.14)"/><polygon class="cls-4" points="114.02 67.54 113.98 67.54 114.03 67.51 114.02 67.54"/><path class="cls-4" d="M68,66.35c-.49.08-.6.38-.22.64.66.45,1.09,1.17,2,1.34S71,69.06,70.9,70a.78.78,0,0,0,.16.66c.7.77.47,1.78.76,2.65-.33.15-.45,0-.51-.18-.39-.94-1.33-.92-2.09-1.14-.49-.14-.32.34-.25.52s.35.33.45.54c.18.36.22.75-.38.68a1.26,1.26,0,0,0-1.44.58c-.17.3-.51.28-.8-.07s-.66-1.11-1.24-.21c0,0-.25-.15-.34-.12-.41.13-.86-.53-1.25.13-.16.27-.21-.14-.34-.2-.31-.14-.69-.42-.71.26v0c-.37,0-.77-.22-1.07.18v0c-.07,0-.18-.06-.21-.12-.22-.42-.54-.31-.72-.06s.26.34.37.51c-1,0-2.11.27-3.1-.24-1.29-.65-2.31,0-3.36.62-.2.13-.63.73-.82-.08,0,0-.19-.11-.22-.08-.79.65-1.13-.58-1.79-.43a11.58,11.58,0,0,0,1.13-.67c.23-.17,1.05-.32.1-.75-.29-.13.34-.53.08-.86,1-.41.31-.63-.2-1a5.26,5.26,0,0,0,2.24-.56,5.26,5.26,0,0,0-2.89-.11c-.17.06-.46.09-.41.25.24.79-.31.39-.52.33-.41-.12-1.11.6-1.22-.49,0-.5-.47-1-.18-1.54a1.32,1.32,0,0,0,0-.53,3.08,3.08,0,0,1,1.9-3,2.19,2.19,0,0,0,.55-.28c1.65-1.28,1.59-1.14,3.46-.36a3.16,3.16,0,0,0,2.86.24c.47-.26.55-.11.41.49.67-.19,1.28-.66,2-.06.29.23.93.06,1.4,0a21,21,0,0,1,3.45.19c.49,0,1.43-.28,1.72.64ZM56.58,69.66a9.83,9.83,0,0,1-2-.18,4.8,4.8,0,0,0-1.69-.18c-.19,0-.48,0-.39.32s.1.56.43.45c.83-.28,1.58.14,2.36.19C55.77,70.28,56.38,70.45,56.58,69.66Zm11,2.9c-.74,0-1.25-.44-1.84-.72a.41.41,0,0,0-.59.17,1,1,0,0,0-.22.82c.1.34.37.21.6.2.51,0,1-.28,1.56,0C67.35,73.15,67.54,72.88,67.63,72.56ZM59,71.7c-.37.09-.71.24-.68.63a1.12,1.12,0,0,0,1.07,1c.27,0,.46-.07.38-.33C59.58,72.53,59.51,72,59,71.7Zm3.61-.47c0-.24-.17-.29-.35-.28s-.39,0-.4.23a.38.38,0,0,0,.75,0Zm5.05,2.64a.19.19,0,0,0-.24-.18c-.11,0-.27,0-.21.19a.39.39,0,0,0,.24.19A.17.17,0,0,0,67.62,73.87Zm-8.86-8,.06,0v-.05Z" transform="translate(-4.75 -3.14)"/><path class="cls-4" d="M84.15,101.89l.16-1c.49.68.9.18,1.33.09s.66-.68,1.06,0c.12.22.31-.1.29-.39a.35.35,0,0,1,.62-.29c.46,1.07,1.44.63,2.19.82,0,0,.1,0,.22.1-.24.2-.62.38-.23.73a.42.42,0,0,1,.07.32c-1.12.66-.26,1.51-.2,2.27,0,.27-.21.51-.29.39-.37-.63-1.11-.19-1.57-.65s-1.85,0-2.06.77a3.05,3.05,0,0,1-.17.51c-.35.62-.82,1.27.53,1.09.31,0,.38.17.25.48a10.32,10.32,0,0,1-.79,2c-.61.86-.41,2-1,2.78-.27.35-.34,1.44-1.29.55-.3-.28-.83,0-1.05.43-.33.61-.91.72-1.49.89-1.71.5-3.5.61-5.24,1-.12,0-.31.08-.34,0-.7-1-2.35-.81-2.78-2.18-.19.1-.19.35-.24.55s-.25.3-.48.28c-.63,0-1.53-1.61-1.13-2s.91-.08,1.37-.14c.28,0,.26.13.28.43s.61.08.93.36c0-.6-.79-.82-.36-1.28s.93-.19,1.43,0a3.18,3.18,0,0,0,3.18-.71,20.24,20.24,0,0,1,3.22-1.86c.85-.5.93-.84.18-1.43a1.18,1.18,0,0,0-.92-.28,12.78,12.78,0,0,1-4.93-.13c-.74-.11-1.52.13-2.26-.24.86-.07,1.5-1,2.54-.48a4,4,0,0,0,2.21.31c.65-.08,1.06-.42,1-1.12s-.42-.7-1-.79a3.26,3.26,0,0,0-2.61.21c-.15.11-.65-.28-1-.44-.71-.33-1.4-.71-2.17-.11-.19.15-.39-.07-.58-.13-.36-.12-.77-.32-1.05.1s-.42.9.05,1.28c.2.17.28.28.15.51s-.3.12-.51.12c-1.56,0-2.78-.9-4.11-1.52a1,1,0,0,0-1.08.22c-.4.29-1,.56-1.29.24s.31-.68.51-1c.47-.78,1.37-.82,2.12-1,1.1-.21,2.24-.19,3.36-.31a10.21,10.21,0,0,1,5.4.83c.17.07.35.17.51.06.79-.57,1.86-.37,2.66-1a1.1,1.1,0,0,1,1.12-.07,2.51,2.51,0,0,0,2-.14c.59-.17,1.2-.25,1.78-.4A2,2,0,0,1,84.15,101.89Zm-3.7,3.27a2.88,2.88,0,0,0-1.49-.68c-.12,0-.26.35-.09.54C79.27,105.43,79.74,105.18,80.45,105.16Z" transform="translate(-4.75 -3.14)"/><path class="cls-4" d="M75.51,97.25a.81.81,0,0,1-1.08.78c-.57-.11-.77-.79-.89-1.25a2.14,2.14,0,0,0-1.86-1.66,12.08,12.08,0,0,0-2.94-.51c-.61.06-1.2-.83-1.09-1.39.15-.72.64-.9,1.52-.79A6.73,6.73,0,0,1,72,94a2.64,2.64,0,0,0,2.14.59,9.43,9.43,0,0,0,3.64-1.69,4.17,4.17,0,0,1,3.54-.79,11.72,11.72,0,0,0,1.67.32,1.56,1.56,0,0,0,1.67-2,10.16,10.16,0,0,0-.75-2.65c-.11-.19-.27-.49.07-.6s.34.21.41.4a21.59,21.59,0,0,1,1,3.79,11.14,11.14,0,0,1,.37,2.37,5.07,5.07,0,0,1-.62,1.84.31.31,0,0,1-.36.21,3.23,3.23,0,0,0-2.43.81,4.87,4.87,0,0,1-4.11.68c-.63-.14-1.19-.35-1.72.33C76.21,98,75.88,97.52,75.51,97.25Z" transform="translate(-4.75 -3.14)"/><path class="cls-4" d="M66.16,74.38c-.2,1-.2,1,.83,1.14a30.63,30.63,0,0,1-9,2c.37-.43.94-.25,1.39-.44a7.18,7.18,0,0,1,1.55-.39,24.74,24.74,0,0,0,4-1C65.63,75.39,65.62,74.7,66.16,74.38Z" transform="translate(-4.75 -3.14)"/><path class="cls-4" d="M50.88,71.51c-.63,0,0,.81-.55.8s-.74-.45-.75-.94a.31.31,0,0,1,.49-.3C50.33,71.2,50.77,71,50.88,71.51Z" transform="translate(-4.75 -3.14)"/><path class="cls-4" d="M69.14,105.84a.18.18,0,0,1,.25.16,4.69,4.69,0,0,1-1,1.3c-.21,0-.24-.1-.26-.25A1.36,1.36,0,0,1,69.14,105.84Z" transform="translate(-4.75 -3.14)"/><path class="cls-4" d="M88.55,109.67c-.59.19-.39.87-.75,1.19-.32-.91-.14-1.21.73-1.17Z" transform="translate(-4.75 -3.14)"/><path class="cls-4" d="M55.66,44.15c-.21-.13-.77.53-1.1-.23C55.05,43.8,55.41,44.2,55.66,44.15Z" transform="translate(-4.75 -3.14)"/><path class="cls-4" d="M61.86,74.29c.36,0,.58.1.42.58-.28-.12-.31-.39-.41-.6Z" transform="translate(-4.75 -3.14)"/><path class="cls-4" d="M99.07,106c0,.12,0,.24-.18.25s-.26,0-.23-.17a.41.41,0,0,1,.19-.25C99,105.81,99.06,105.89,99.07,106Z" transform="translate(-4.75 -3.14)"/><path class="cls-4" d="M73,114l-.1.17a1.18,1.18,0,0,1-.18-.13s0-.13.08-.13A.69.69,0,0,1,73,114Z" transform="translate(-4.75 -3.14)"/><path class="cls-4" d="M62.92,74.13c.11,0,.22-.07.26.08a.16.16,0,0,1-.08.13c-.18,0-.11-.15-.17-.23Z" transform="translate(-4.75 -3.14)"/><polygon class="cls-4" points="84.29 72.95 84.25 72.91 84.28 72.97 84.29 72.95"/><polygon class="cls-4" points="71.16 34.41 71.17 34.44 71.17 34.4 71.16 34.41"/><path class="cls-4" d="M93.89,64.75l-.1-.09c.13,0,.11,0,.09.1Z" transform="translate(-4.75 -3.14)"/><polygon class="cls-4" points="84.11 106.42 84.07 106.37 84.1 106.43 84.11 106.42"/><path class="cls-4" d="M69.57,67.72l-.06.06s-.05,0-.05-.06,0,0,.05-.06Z" transform="translate(-4.75 -3.14)"/><path class="cls-4" d="M68.24,66.85s0,0,0-.06,0,0,0-.05,0,0,0,.06S68.26,66.83,68.24,66.85Z" transform="translate(-4.75 -3.14)"/><path class="cls-4" d="M68,66.37l.14,0-.07.08L68,66.35Z" transform="translate(-4.75 -3.14)"/><path class="cls-4" d="M60.77,38.46H61l-.08.2Z" transform="translate(-4.75 -3.14)"/><path class="cls-5" d="M56.58,69.66c-.2.79-.81.62-1.32.6-.78-.05-1.53-.47-2.36-.19-.33.11-.38-.25-.43-.45s.2-.28.39-.32a4.8,4.8,0,0,1,1.69.18A9.83,9.83,0,0,0,56.58,69.66Z" transform="translate(-4.75 -3.14)"/><path class="cls-5" d="M67.63,72.56c-.09.32-.28.59-.49.48-.54-.29-1,0-1.56,0-.23,0-.5.14-.6-.2A1,1,0,0,1,65.2,72a.41.41,0,0,1,.59-.17C66.38,72.12,66.89,72.6,67.63,72.56Z" transform="translate(-4.75 -3.14)"/><path class="cls-5" d="M59,71.7c.55.27.62.83.77,1.32.08.26-.11.37-.38.33a1.12,1.12,0,0,1-1.07-1C58.25,71.94,58.59,71.79,59,71.7Z" transform="translate(-4.75 -3.14)"/><path class="cls-5" d="M62.57,71.23a.38.38,0,0,1-.75,0c0-.24.23-.22.4-.23S62.57,71,62.57,71.23Z" transform="translate(-4.75 -3.14)"/><path class="cls-5" d="M67.62,73.87a.17.17,0,0,1-.21.2.39.39,0,0,1-.24-.19c-.06-.16.1-.18.21-.19A.19.19,0,0,1,67.62,73.87Z" transform="translate(-4.75 -3.14)"/><polygon class="cls-5" points="54.01 62.76 54.08 62.74 54.06 62.79 54.01 62.76"/><path class="cls-5" d="M80.45,105.16c-.71,0-1.18.27-1.58-.14-.17-.19,0-.54.09-.54A2.88,2.88,0,0,1,80.45,105.16Z" transform="translate(-4.75 -3.14)"/></g><circle class="cls-7" cx="77.6" cy="77.6" r="74.6"/></svg>